VAiN . P R E S E N T S . . .

Oblivion.2013.720p.CAM.READNFO.XViD-VAiN

iMDB........: http://www.imdb.com/title/tt1483013/
PLOT........: A veteran assigned to extract Earth's
remaining resources begins to question what he knows
about his mission and himself.


T E C H N i C A L . i N F O . . .      
General
Complete name                            : Oblivion 2013 CAM READNFO XViD - VAiN\Oblivion 2013 CAM READNFO XViD - VAiN.avi
Format                                   : AVI
Format/Info                              : Audio Video Interleave
Format profile                           : OpenDML
File size                                : 2.33 GiB
Duration                                 : 1h 57mn
Overall bit rate                         : 2 847 Kbps
Writing application                      : VirtualDubMod 1.5.10.2 (build 2540/release)
Writing library                          : VirtualDubMod build 2540/release

Video
ID                                       : 0
Format                                   : MPEG-4 Visual
Format profile                           : Advanced Simple@L5
Format settings, BVOP                    : 2
Format settings, QPel                    : No
Format settings, GMC                     : No warppoints
Format settings, Matrix                  : Default (MPEG)
Muxing mode                              : Packed bitstream
Codec ID                                 : XVID
Codec ID/Hint                            : XviD
Duration                                 : 1h 57mn
Bit rate                                 : 2 708 Kbps
Width                                    : 1 280 pixels
Height                                   : 480 pixels
Display aspect ratio                     : 2.667
Frame rate                               : 25.000 fps
Color space                              : YUV
Chroma subsampling                       : 4:2:0
Bit depth                                : 8 bits
Scan type                                : Progressive
Compression mode                         : Lossy
Bits/(Pixel*Frame)                       : 0.176
Stream size                              : 2.21 GiB (95%)
Writing library                          : XviD 64

Audio
ID                                       : 1
Format                                   : MPEG Audio
Format version                           : Version 1
Format profile                           : Layer 3
Mode                                     : Joint stereo
Mode extension                           : MS Stereo
Codec ID                                 : 55
Codec ID/Hint                            : MP3
Duration                                 : 1h 57mn
Bit rate mode                            : Constant
Bit rate                                 : 128 Kbps
Channel(s)                               : 2 channels
Sampling rate                            : 44.1 KHz
Compression mode                         : Lossy
Delay relative to video                  : 2ms
Stream size                              : 107 MiB (4%)
Alignment                                : Split accross interleaves
Interleave, duration                     : 40 ms (1.00 video frame)
Writing library                          : LAME3.99.5
Encoding settings                        : -m j -V 4 -q 2 -lowpass 17 -b 128





E N C O D E R S . N O T E S . . .      

SOURCE......: Oblivion.2013.HDCam.FOX
SAMPLE......: Yes
ADDED NOTE..: Tweaked lots of things,
             check the samples first,
             Enjoy...

READNDFO....: blurred the different watermarks when they appear,
             if you don't like cams, do not grab. some dark bits,
     some hot spots, overall not to bad.


S C R E E N . S H O T S . . .
 
http://i.imgur.com/63VVobF.png 
http://i.imgur.com/eq5yrPa.png 
http://i.imgur.com/mrHHyx4.png 
http://i.imgur.com/RJzqNau.png
